<svg width="26" height="26" viewBox="0 0 26 26" fill="none" xmlns="http://www.w3.org/2000/svg">
<path d="M21.7524 1.54824L21.8965 1.89559L21.7524 1.54824C21.5002 1.65286 21.2711 1.80618 21.0783 1.99944L12.9998 10.0614L4.92049 1.9821C4.72752 1.78913 4.49843 1.63606 4.2463 1.53162L4.10548 1.87158L4.2463 1.53162C3.99417 1.42719 3.72394 1.37343 3.45104 1.37343C3.17813 1.37343 2.9079 1.42719 2.65577 1.53162C2.40364 1.63606 2.17455 1.78913 1.98158 1.9821C1.78861 2.17507 1.63554 2.40416 1.5311 2.65629C1.42667 2.90842 1.37292 3.17865 1.37292 3.45155C1.37292 3.72446 1.42667 3.99469 1.5311 4.24682C1.63554 4.49895 1.78861 4.72804 1.98158 4.92101L2.24788 4.65471L1.98158 4.92101L10.0606 13L1.98158 21.0791C1.78861 21.272 1.63554 21.5011 1.5311 21.7532C1.42667 22.0054 1.37292 22.2756 1.37292 22.5485C1.37292 22.8214 1.42667 23.0916 1.5311 23.3438C1.63554 23.5959 1.78861 23.825 1.98158 24.018C2.17455 24.2109 2.40364 24.364 2.65578 24.4684C2.9079 24.5729 3.17813 24.6266 3.45104 24.6266C3.72394 24.6266 3.99417 24.5729 4.2463 24.4684C4.49843 24.364 4.72752 24.2109 4.92049 24.018L12.9995 15.9389L21.0785 24.018C21.2715 24.2109 21.5006 24.364 21.7527 24.4684C22.0049 24.5729 22.2751 24.6266 22.548 24.6266C22.8209 24.6266 23.0911 24.5729 23.3433 24.4684C23.5954 24.364 23.8245 24.2109 24.0174 24.018C24.2104 23.825 24.3635 23.5959 24.4679 23.3438C24.5724 23.0916 24.6261 22.8214 24.6261 22.5485C24.6261 22.2756 24.5724 22.0054 24.4679 21.7532C24.3635 21.5011 24.2104 21.272 24.0174 21.0791L15.9384 13L24.0174 4.92101C24.8129 4.12552 24.813 2.79505 24.0177 1.99944C23.8248 1.80618 23.5958 1.65285 23.3436 1.54824C23.0914 1.44363 22.821 1.38978 22.548 1.38978C22.275 1.38978 22.0046 1.44363 21.7524 1.54824Z" fill="white" stroke="white" stroke-width="0.753191"/>
</svg>
