<svg width="19" height="19" viewBox="0 0 19 19" fill="none" xmlns="http://www.w3.org/2000/svg">
<path d="M11.5408 9.38165L18.1217 2.81515C18.4099 2.52692 18.5718 2.136 18.5718 1.72838C18.5718 1.32077 18.4099 0.929848 18.1217 0.64162C17.8335 0.353392 17.4426 0.191467 17.0351 0.191467C16.6275 0.191467 16.2367 0.353392 15.9485 0.64162L9.3829 7.22343L2.81733 0.64162C2.52914 0.353392 2.13827 0.191467 1.73072 0.191467C1.32316 0.191467 0.932293 0.353392 0.644107 0.64162C0.35592 0.929848 0.194018 1.32077 0.194018 1.72838C0.194018 2.136 0.35592 2.52692 0.644107 2.81515L7.22498 9.38165L0.644107 15.9482C0.500661 16.0905 0.386806 16.2597 0.309108 16.4463C0.23141 16.6328 0.191406 16.8329 0.191406 17.0349C0.191406 17.237 0.23141 17.437 0.309108 17.6236C0.386806 17.8101 0.500661 17.9794 0.644107 18.1217C0.786381 18.2651 0.955648 18.379 1.14215 18.4567C1.32864 18.5344 1.52868 18.5744 1.73072 18.5744C1.93275 18.5744 2.13279 18.5344 2.31929 18.4567C2.50578 18.379 2.67505 18.2651 2.81733 18.1217L9.3829 11.5399L15.9485 18.1217C16.0907 18.2651 16.26 18.379 16.4465 18.4567C16.633 18.5344 16.833 18.5744 17.0351 18.5744C17.2371 18.5744 17.4371 18.5344 17.6236 18.4567C17.8101 18.379 17.9794 18.2651 18.1217 18.1217C18.2651 17.9794 18.379 17.8101 18.4567 17.6236C18.5344 17.437 18.5744 17.237 18.5744 17.0349C18.5744 16.8329 18.5344 16.6328 18.4567 16.4463C18.379 16.2597 18.2651 16.0905 18.1217 15.9482L11.5408 9.38165Z" fill="#010101" fill-opacity="0.6"/>
</svg>
